PathFileType	3	(X/Y/Z)	D:\Vicon Setup\UG\Test1\New Session\NewSession13.trc
DataRate	CameraRate	NumFrames	NumMarkers	Units	OrigDataRate	OrigDataStartFrame	OrigNumFrames
100.0	100.0	11	27	mm	100.0	580	333	
Frame#	Time	Sternum			LShoulder			RShoulder			LASIS			RASIS			RPSIS			LPSIS			RKneeLateral			RKneeMedial			RFibulaHead			RMidShank			RAnkleLateral			RAnkleMedial			RHeel			RMT5			RMT2			RToe			LKneeLateral			LKneeMedial			LFibulaHead			LMidShank			LAnkleLateral			LAnkleMedial			LHeel			LMT5			LMT2			LToe			
		X1	Y1	Z1	X2	Y2	Z2	X3	Y3	Z3	X4	Y4	Z4	X5	Y5	Z5	X6	Y6	Z6	X7	Y7	Z7	X8	Y8	Z8	X9	Y9	Z9	X10	Y10	Z10	X11	Y11	Z11	X12	Y12	Z12	X13	Y13	Z13	X14	Y14	Z14	X15	Y15	Z15	X16	Y16	Z16	X17	Y17	Z17	X18	Y18	Z18	X19	Y19	Z19	X20	Y20	Z20	X21	Y21	Z21	X22	Y22	Z22	X23	Y23	Z23	X24	Y24	Z24	X25	Y25	Z25	X26	Y26	Z26	X27	Y27	Z27	
580	5.79	-260.65128	1376.5503	-945.61597	-76.35334	1452.4302	-1046.5582	-443.64948	1411.0261	-1024.4594	-136.11333	999.54822	-1008.5184	-391.23077	1016.4745	-1002.451	-325.65027	1032.9142	-1178.4982	-195.25424	1023.5841	-1184.3236	-394.42987	532.60278	-1045.6381	-262.71738	519.1369	-1021.89	-392.25769	449.11993	-1049.558	-298.16562	290.54721	-1034.9666	-340.37827	93.419609	-1101.0298	-262.54291	125.76202	-1053.5389	-283.39984	70.922318	-1171.3064	-378.80121	26.77412	-951.23328	-311.81897	60.290688	-947.45538	-309.4433	45.105824	-904.14026	-64.820358	543.52246	-942.37073	-189.23471	518.76514	-901.11908	-64.447876	499.01517	-977.70453	-145.90961	357.18472	-1028.9066	-124.68708	241.84103	-1216.6738	-191.90599	222.46985	-1155.8822	-202.28178	262.17798	-1267.8708	-62.401562	108.3289	-1184.6912	-115.98574	108.39043	-1136.3649	-118.25664	76.929398	-1115.6614
581	5.8	-260.55362	1377.7582	-932.26807	-76.354141	1453.2666	-1033.7489	-443.8721	1412.7023	-1010.4191	-136.71843	1001.3201	-995.35211	-391.6373	1016.8433	-989.99841	-324.85138	1034.0856	-1165.5382	-194.43709	1024.903	-1170.8998	-393.65356	533.64667	-1041.2772	-261.93472	519.46088	-1016.2716	-391.41437	450.18121	-1046.2784	-297.59521	291.23419	-1032.7734	-340.12341	94.619797	-1100.3447	-261.82471	126.32211	-1052.1772	-283.01343	72.691795	-1170.4606	-378.70245	26.815042	-951.08716	-311.67508	60.104145	-946.91034	-309.4133	44.597237	-903.70215	-65.973381	547.30615	-919.28522	-189.89737	524.36908	-877.59406	-64.980026	501.45435	-953.01953	-146.24164	357.43347	-998.17993	-123.59258	233.59953	-1181.0022	-191.42572	217.78839	-1119.9868	-200.49577	249.91441	-1235.0294	-60.505241	103.54396	-1139.2126	-115.00793	106.39498	-1091.7341	-117.1924	76.34684	-1068.8662
582	5.81	-260.37613	1378.6617	-918.94379	-76.272385	1453.9122	-1020.6099	-443.9512	1414.0513	-996.48853	-137.21091	1002.5133	-981.86725	-392.07626	1017.1736	-977.31195	-323.83432	1034.8861	-1152.6791	-193.35098	1025.8643	-1157.3923	-392.7793	534.7088	-1036.8469	-261.04733	520.04077	-1011.2272	-390.48904	451.19495	-1042.7943	-296.83456	291.94031	-1030.4824	-339.55496	95.99987	-1099.1844	-261.24881	126.99066	-1050.8746	-282.73761	74.53746	-1169.9204	-378.48505	26.659437	-951.14209	-311.48093	59.951996	-946.34528	-309.37567	44.108784	-903.28741	-67.506866	550.55994	-897.20685	-190.88072	529.59625	-855.80054	-65.654747	503.11493	-928.91827	-146.67642	357.17206	-968.17853	-122.57031	224.34911	-1144.3552	-190.94321	212.30763	-1083.3545	-198.50343	236.4913	-1200.9713	-59.132618	98.191154	-1092.8306	-114.2453	104.14644	-1046.2527	-116.46261	75.656876	-1021.7292
583	5.82	-260.14749	1379.2788	-905.5318	-76.711418	1453.9753	-1007.6854	-443.89261	1415.0472	-982.65002	-137.57358	1003.1973	-968.11578	-392.50845	1017.3631	-964.77985	-322.61884	1035.5024	-1139.8218	-192.16397	1026.5017	-1143.8903	-391.93152	535.63556	-1032.2067	-259.97849	520.56708	-1006.6337	-389.59073	452.13104	-1039.2456	-296.03357	292.63797	-1028.2567	-339.19684	97.324577	-1098.3256	-260.78723	127.44811	-1050.2125	-282.59775	76.349174	-1168.7938	-378.39157	26.698881	-951.07141	-311.25519	59.855293	-945.6767	-309.33505	43.722794	-902.901	-68.65889	553.82233	-875.58362	-192.11787	534.7666	-835.08881	-66.355782	504.11749	-905.25433	-147.23892	356.4892	-938.29181	-121.29754	214.34235	-1106.8588	-190.5098	205.91402	-1046.2079	-196.78084	222.228	-1165.8516	-57.670269	92.889679	-1045.8049	-113.54034	101.66889	-1000.8177	-116.07239	75.059158	-973.70953
584	5.83	-259.87347	1379.6072	-892.03381	-76.624008	1453.8585	-994.42181	-443.7439	1415.7491	-968.79578	-137.94888	1003.7228	-954.00458	-393.00656	1017.5833	-951.37097	-321.30832	1035.7943	-1126.9956	-190.92563	1026.8572	-1130.3267	-391.17548	536.50464	-1027.488	-259.05798	521.3501	-1002.0482	-388.74615	453.04446	-1035.601	-295.33676	293.45419	-1025.7677	-338.86902	98.458672	-1097.4448	-260.34482	128.06821	-1049.072	-282.3013	78.087555	-1168.2301	-378.3667	26.551729	-951.37659	-311.11566	59.751225	-945.2193	-309.20154	43.466713	-902.44214	-69.779877	556.31805	-854.68787	-193.45505	539.44629	-815.81018	-67.033852	504.55469	-882.04309	-147.92087	355.39154	-908.65936	-120.0053	203.65369	-1068.4757	-189.63083	199.37677	-1007.8586	-194.55836	207.14108	-1128.9459	-56.555256	87.473022	-998.32739	-112.96546	99.244972	-954.76202	-115.71073	74.628349	-925.78497
585	5.84	-259.56674	1379.5698	-878.4743	-76.1399	1453.5845	-981.0307	-443.5903	1416.1936	-954.94788	-138.41385	1003.98	-939.7431	-393.30545	1016.4756	-940.81268	-320.04034	1035.8268	-1114.0909	-189.67891	1026.9008	-1116.7451	-390.5036	537.29053	-1022.6257	-258.11453	521.89484	-998.16876	-388.05164	453.91306	-1031.9111	-294.75711	294.17795	-1023.6801	-338.6424	99.611511	-1096.5869	-259.99426	128.59291	-1049.2079	-282.17242	79.614609	-1167.2439	-378.38776	26.696064	-951.02887	-311.2283	59.810726	-944.84692	-309.15875	43.20557	-902.1958	-71.125832	558.27533	-834.00793	-194.9791	543.51556	-797.5379	-67.800201	504.35577	-859.42737	-148.78197	353.87817	-879.07715	-118.72878	192.66121	-1029.2687	-189.00964	192.31197	-969.237	-192.718	191.44992	-1090.6862	-55.640491	82.302948	-950.30511	-112.32524	97.062317	-908.2951	-115.44428	74.606384	-877.48682
586	5.85	-259.20099	1379.1853	-864.78741	-75.864769	1452.8784	-967.47754	-443.35666	1416.3621	-941.05927	-138.74442	1003.6564	-925.94891	-393.88226	1015.6346	-928.05383	-318.76913	1035.5939	-1101.1426	-188.39589	1026.6561	-1103.1545	-389.96393	538.02759	-1017.7812	-257.7767	522.26404	-994.72754	-387.49008	454.77759	-1028.2672	-294.37408	294.80563	-1021.4454	-338.53333	100.70714	-1095.8268	-259.94809	129.21802	-1047.3052	-282.14996	81.281624	-1166.6017	-378.46463	26.71052	-951.17059	-311.04596	59.388199	-944.87018	-309.34268	42.8727	-902.26819	-72.268097	559.64386	-814.31177	-196.24164	546.62958	-780.42517	-68.504234	503.63965	-837.38306	-149.75626	352.07709	-849.83844	-117.50659	181.40552	-989.01031	-188.39337	185.0614	-930.12885	-190.71877	175.30624	-1051.3403	-54.505951	77.731949	-901.96045	-111.7455	95.284576	-861.72369	-114.7898	75.216431	-829.36005
587	5.86	-258.7699	1378.4663	-851.01996	-75.73925	1451.9163	-953.79163	-442.81076	1416.3374	-927.27527	-138.91451	1002.8109	-912.2113	-394.11691	1014.7644	-915.3476	-317.45108	1034.9757	-1087.5175	-187.20236	1026.0776	-1089.5564	-389.39139	538.63934	-1012.815	-257.18411	522.54065	-990.64349	-387.00415	455.56403	-1024.645	-294.06891	295.35843	-1019.1351	-338.42023	101.80713	-1095.0276	-259.77258	129.88475	-1046.1688	-282.08966	82.953339	-1165.9651	-378.46719	26.655313	-951.06439	-311.02527	59.23037	-944.47925	-309.20267	42.529823	-902.3678	-73.510002	560.43152	-795.5423	-197.67688	548.6814	-764.22711	-69.359787	502.43033	-816.14154	-150.73441	349.92194	-820.96027	-116.15145	170.41705	-948.18488	-187.78873	177.89503	-890.18091	-188.63583	158.83145	-1009.7822	-53.334103	74.026443	-853.29712	-111.04283	94.088226	-815.06647	-114.24371	76.483635	-781.1377
588	5.87	-258.20889	1377.3544	-837.22186	-75.510513	1450.5681	-940.09271	-442.49878	1415.8658	-913.28717	-138.97229	1001.5883	-898.39935	-394.17722	1013.6212	-902.63885	-316.29242	1034.3374	-1074.8113	-186.07079	1025.1255	-1075.9025	-388.92642	539.26471	-1007.8965	-256.8006	522.56903	-986.07227	-386.54309	456.27115	-1021.0078	-293.84393	295.86954	-1016.7608	-338.2699	102.89356	-1094.2032	-259.5423	130.51419	-1045.2269	-282.03378	84.631668	-1165.2925	-378.31076	26.554567	-950.9491	-311.06003	59.134987	-944.21057	-309.155	42.320339	-902.13196	-74.795906	560.48663	-777.87146	-199.04048	549.73108	-748.58301	-70.219215	500.73004	-795.67072	-151.70636	347.47107	-792.36414	-114.63548	159.6702	-906.72949	-186.90254	170.8251	-850.32709	-186.70534	142.8627	-967.90417	-52.120014	71.276161	-804.55573	-110.17884	93.945816	-768.24249	-113.66411	79.054901	-733.0036
589	5.88	-257.59811	1375.869	-823.30353	-75.020767	1449.045	-926.14496	-441.7706	1415.2397	-899.3114	-138.90475	1000.1061	-884.60065	-394.19836	1012.1984	-889.76324	-315.16934	1033.2211	-1061.5619	-184.9238	1023.7883	-1062.2812	-388.46759	539.8479	-1002.9132	-256.52695	522.43677	-981.0752	-386.07355	456.96683	-1017.2241	-293.58649	296.36688	-1014.3061	-338.1286	103.9504	-1093.3901	-259.32675	131.09872	-1044.2172	-282.00363	86.222008	-1164.5737	-378.30267	26.486351	-950.87909	-310.93445	59.054348	-943.90228	-309.26602	42.191097	-902.07684	-76.131317	559.72174	-761.57318	-200.31682	549.58148	-733.87701	-71.144691	498.42041	-776.42169	-152.47737	344.92218	-764.51471	-113.0801	149.34346	-864.79156	-185.92586	164.37314	-809.98151	-184.87918	127.30805	-925.15405	-50.795155	69.717957	-755.71545	-109.28635	94.862747	-721.6308	-112.88072	82.962547	-685.24487
590	5.89	-256.87628	1373.9521	-809.39423	-74.173798	1447.2078	-912.01978	-441.05862	1414.2709	-885.27405	-138.71658	998.34521	-870.71875	-394.03613	1010.4951	-876.57727	-314.05792	1031.7966	-1048.1157	-183.88516	1022.0502	-1048.5857	-387.87802	540.38379	-998.09949	-256.18134	522.22217	-976.67914	-385.6622	457.63559	-1013.2928	-293.34698	296.75992	-1011.7938	-338.02945	105.01721	-1092.5835	-259.14856	131.64148	-1043.2532	-281.95032	87.81662	-1163.8567	-378.31549	26.411728	-950.81531	-310.98679	58.873257	-943.45959	-309.27478	42.027279	-901.7688	-77.268768	558.11847	-746.17828	-201.63231	548.07153	-720.13873	-72.075668	495.57846	-758.33783	-152.90956	342.06677	-737.2262	-110.89873	139.88651	-822.9837	-184.83194	158.77379	-769.62244	-182.32494	112.6083	-881.81061	-49.244102	69.496338	-706.83508	-108.38679	97.11364	-675.63684	-112.1046	88.354614	-638.13898
